HIERARCHY
ROOT Hips
{
 OFFSET 0.000000 0.000000 0.000000
 CHANNELS 6 Xposition Yposition Zposition Yrotation Xrotation Zrotation
 JOINT Chest
 {
  OFFSET 0.000000 9.585900 0.002600
  CHANNELS 3 Yrotation Xrotation Zrotation
  JOINT Chest2
  {
   OFFSET 0.000000 9.601200 -0.005300
   CHANNELS 3 Yrotation Xrotation Zrotation
   JOINT Chest3
   {
    OFFSET 0.000000 9.561800 0.000000
    CHANNELS 3 Yrotation Xrotation Zrotation
    JOINT Chest4
    {
     OFFSET 0.000000 9.552100 0.000000
     CHANNELS 3 Yrotation Xrotation Zrotation
     JOINT Neck
     {
      OFFSET 0.000000 14.453000 0.000000
      CHANNELS 3 Yrotation Xrotation Zrotation
      JOINT Head
      {
       OFFSET 0.000000 8.936500 -0.011300
       CHANNELS 3 Yrotation Xrotation Zrotation
       End Site
       {
        OFFSET 0.000000 17.073600 -0.006000
       }
      }
     }
     JOINT RightCollar
     {
      OFFSET -2.921100 9.558500 0.000000
      CHANNELS 3 Yrotation Xrotation Zrotation
      JOINT RightShoulder
      {
       OFFSET -13.519700 0.000000 0.000000
       CHANNELS 3 Yrotation Xrotation Zrotation
       JOINT RightElbow
       {
        OFFSET 0.000000 -29.696600 0.000000
        CHANNELS 3 Yrotation Xrotation Zrotation
        JOINT RightWrist
        {
         OFFSET 0.000000 -24.004700 0.000000
         CHANNELS 3 Yrotation Xrotation Zrotation
         End Site
         {
          OFFSET 0.000000 -17.728500 0.000000
         }
        }
       }
      }
     }
     JOINT LeftCollar
     {
      OFFSET 2.921100 9.558500 0.000000
      CHANNELS 3 Yrotation Xrotation Zrotation
      JOINT LeftShoulder
      {
       OFFSET 13.519700 0.000000 0.000000
       CHANNELS 3 Yrotation Xrotation Zrotation
       JOINT LeftElbow
       {
        OFFSET 0.000000 -29.696600 0.000000
        CHANNELS 3 Yrotation Xrotation Zrotation
        JOINT LeftWrist
        {
         OFFSET 0.000000 -24.004700 0.000000
         CHANNELS 3 Yrotation Xrotation Zrotation
         End Site
         {
          OFFSET 0.000000 -17.728500 0.000000
         }
        }
       }
      }
     }
    }
   }
  }
 }
 JOINT RightHip
 {
  OFFSET -7.771700 -0.012900 -0.001300
  CHANNELS 3 Yrotation Xrotation Zrotation
  JOINT RightKnee
  {
   OFFSET 0.000000 -40.869800 0.001200
   CHANNELS 3 Yrotation Xrotation Zrotation
   JOINT RightAnkle
   {
    OFFSET 0.000000 -39.717900 0.002100
    CHANNELS 3 Yrotation Xrotation Zrotation
    JOINT RightToe
    {
     OFFSET 0.000000 -4.965400 11.033500
     CHANNELS 3 Yrotation Xrotation Zrotation
     End Site
     {
      OFFSET 0.000000 -1.423100 5.872300
     }
    }
   }
  }
 }
 JOINT LeftHip
 {
  OFFSET 7.771700 -0.012900 -0.001300
  CHANNELS 3 Yrotation Xrotation Zrotation
  JOINT LeftKnee
  {
   OFFSET 0.000000 -40.869800 0.001200
   CHANNELS 3 Yrotation Xrotation Zrotation
   JOINT LeftAnkle
   {
    OFFSET 0.000000 -39.717900 0.002100
    CHANNELS 3 Yrotation Xrotation Zrotation
    JOINT LeftToe
    {
     OFFSET 0.000000 -4.965400 11.033500
     CHANNELS 3 Yrotation Xrotation Zrotation
     End Site
     {
      OFFSET 0.000000 -1.423100 5.872300
     }
    }
   }
  }
 }
}
MOTION
Frames: 5
Frame Time: 0.008333
0.000000 85.388000 0.000000 0.000000 -5.767877 0.000000 0.000000 11.653817 0.000000 0.000000 -5.885947 0.000000 0.000000 -0.000000 0.000000 0.000000 -0.000000 0.000000 0.000000 12.528835 0.000000 0.000000 0.711642 0.000000 0.000000 -0.000000 0.000000 0.000000 0.000000 -90.000000 0.000000 -2.309062 0.000000 0.000000 2.309062 0.000000 0.000000 -0.000000 0.000000 0.000000 -0.000000 90.000000 0.000000 -2.309062 0.000000 0.000000 2.309062 0.000000 0.000000 8.520406 0.000000 0.000000 1.905762 0.000000 -0.000000 -4.658285 0.000000 0.000000 -0.000000 0.000000 0.000000 8.520406 0.000000 0.000000 1.905762 0.000000 -0.000000 -4.658285 0.000000 0.000000 -0.000000 0.000000
-31.924951 55.250627 40.164713 179.776192 -29.965132 -11.182159 0.721608 14.971714 6.783655 0.192648 8.770838 2.327895 0.306448 10.988428 2.935366 0.210207 8.805064 2.347967 4.360887 17.639382 -1.248780 4.918122 -6.970773 -2.344218 0.230049 2.634750 -3.781706 -21.362517 -4.983806 5.164919 -81.269953 -36.104245 114.277682 -1.633690 -6.308112 27.099913 -9.777817 3.072833 -2.837934 12.723118 -4.626331 0.585487 112.575443 -48.229241 -135.924168 39.504272 2.235101 -27.574291 -17.735828 -35.363053 6.266383 47.374722 84.798140 42.559105 0.129712 -19.900904 2.806784 -1.276650 2.737167 -0.580795 -14.934996 -47.901068 17.482112 173.560957 79.609730 168.546307 -1.682766 -17.071711 2.585849 -0.886040 -1.490447 -0.437658
-31.916597 55.240293 40.154986 179.780258 -29.885144 -11.149998 0.717419 14.943467 6.777525 0.186308 8.756489 2.324586 0.335672 11.010916 2.962537 0.173486 8.755686 2.320018 4.364208 17.609186 -1.246198 4.909711 -7.039388 -2.347832 0.242756 2.634665 -3.783870 -21.395442 -5.077039 5.121588 -81.413244 -36.046532 114.242416 -1.876660 -6.628797 26.558471 -9.789969 3.089630 -2.827801 12.773228 -4.673556 0.502790 112.757078 -48.196909 -135.897656 40.089885 1.149360 -26.033113 -17.757959 -35.456467 6.262945 47.681635 84.826436 42.872919 0.110732 -19.932282 2.789890 -1.263176 2.741841 -0.571229 -14.970630 -47.988753 17.472157 173.557223 79.589676 168.544886 -1.671559 -17.082196 2.574869 -0.890635 -1.489874 -0.442454
-31.904922 55.232618 40.136923 179.796593 -29.843255 -11.131992 0.715705 14.952048 6.781954 0.194292 8.760011 2.334077 0.327469 10.989712 2.957297 0.174097 8.745531 2.321483 4.336373 17.580178 -1.261962 4.916192 -7.106498 -2.340438 0.238126 2.623505 -3.793151 -21.414015 -5.163111 5.076639 -81.559486 -36.027277 114.171338 -2.096269 -6.933788 26.003342 -9.821566 3.105158 -2.823614 12.790633 -4.718292 0.456760 113.059783 -48.218550 -135.904625 40.568099 0.010162 -24.491503 -17.775883 -35.505100 6.248268 48.020152 84.856381 43.228554 0.086392 -19.960375 2.775422 -1.234519 2.734327 -0.568412 -15.004080 -48.032500 17.457921 173.571619 79.564022 168.564175 -1.655160 -17.095821 2.559041 -0.894154 -1.497656 -0.450391
-31.891550 55.225271 40.115388 179.804949 -29.816500 -11.112971 0.717397 14.964470 6.782814 0.186581 8.738816 2.325748 0.345073 11.008415 2.973780 0.174262 8.738811 2.324212 4.331263 17.542989 -1.263566 4.910686 -7.147512 -2.340928 0.273734 2.633019 -3.796540 -21.471086 -5.252364 5.045619 -81.695533 -36.044521 114.075921 -2.287424 -7.217907 25.442799 -9.858065 3.126134 -2.820186 12.830861 -4.785995 0.365153 113.438323 -48.381171 -135.955191 40.923551 -1.178709 -22.932468 -17.797106 -35.543596 6.240934 48.413679 84.895904 43.630473 0.069829 -19.976036 2.748591 -1.200434 2.709999 -0.555659 -15.046556 -48.061256 17.439485 173.536549 79.527370 168.536931 -1.618860 -17.104799 2.519493 -0.912102 -1.517061 -0.448513
